<mxfile host="app.diagrams.net" modified="2024-06-12T12:44:53.295Z" agent="Mozilla/5.0 (Windows NT 10.0; Win64; x64) AppleWebKit/537.36 (KHTML, like Gecko) Chrome/122.0.0.0 YaBrowser/24.4.0.0 Safari/537.36" etag="vO-gb5DX0fwV4Me-L2lj" version="24.5.3" type="device">
  <diagram name="Страница — 1" id="N7Sg3UH5Ts3uhFPLQ2yA">
    <mxGraphModel dx="2384" dy="1338" grid="0" gridSize="10" guides="1" tooltips="1" connect="1" arrows="1" fold="1" page="1" pageScale="1" pageWidth="827" pageHeight="1169" math="0" shadow="0">
      <root>
        <mxCell id="0" />
        <mxCell id="1" parent="0" />
        <mxCell id="HgiKQU-IZWxFRXdvWFaB-30" value="" style="endArrow=classic;html=1;rounded=0;exitX=1;exitY=0.5;exitDx=0;exitDy=0;entryX=0.5;entryY=0;entryDx=0;entryDy=0;edgeStyle=orthogonalEdgeStyle;curved=1;strokeColor=#CCCCCC;" edge="1" parent="1" source="HgiKQU-IZWxFRXdvWFaB-16" target="HgiKQU-IZWxFRXdvWFaB-25">
          <mxGeometry width="50" height="50" relative="1" as="geometry">
            <mxPoint x="321.25" y="322" as="sourcePoint" />
            <mxPoint x="349.25" y="435" as="targetPoint" />
          </mxGeometry>
        </mxCell>
        <mxCell id="HgiKQU-IZWxFRXdvWFaB-28" value="" style="endArrow=classic;html=1;rounded=0;exitX=0.377;exitY=0.996;exitDx=0;exitDy=0;exitPerimeter=0;entryX=0.5;entryY=0;entryDx=0;entryDy=0;edgeStyle=orthogonalEdgeStyle;curved=1;strokeColor=#CCCCCC;" edge="1" parent="1" source="5lqwtr8k2KFm3o20Jcil-46" target="HgiKQU-IZWxFRXdvWFaB-15">
          <mxGeometry width="50" height="50" relative="1" as="geometry">
            <mxPoint x="33.239999999999995" y="143" as="sourcePoint" />
            <mxPoint x="69.24" y="165" as="targetPoint" />
          </mxGeometry>
        </mxCell>
        <mxCell id="5lqwtr8k2KFm3o20Jcil-1" value="" style="endArrow=none;html=1;rounded=0;strokeWidth=1;" parent="1" edge="1">
          <mxGeometry width="50" height="50" relative="1" as="geometry">
            <mxPoint x="23" y="620" as="sourcePoint" />
            <mxPoint x="23" y="88" as="targetPoint" />
          </mxGeometry>
        </mxCell>
        <mxCell id="5lqwtr8k2KFm3o20Jcil-3" value="" style="endArrow=classic;html=1;rounded=0;" parent="1" edge="1">
          <mxGeometry width="50" height="50" relative="1" as="geometry">
            <mxPoint x="23" y="190" as="sourcePoint" />
            <mxPoint x="722" y="190" as="targetPoint" />
          </mxGeometry>
        </mxCell>
        <mxCell id="5lqwtr8k2KFm3o20Jcil-4" value="t" style="edgeLabel;html=1;align=center;verticalAlign=middle;resizable=0;points=[];" parent="5lqwtr8k2KFm3o20Jcil-3" vertex="1" connectable="0">
          <mxGeometry x="0.9802" y="-2" relative="1" as="geometry">
            <mxPoint x="8" y="4" as="offset" />
          </mxGeometry>
        </mxCell>
        <mxCell id="5lqwtr8k2KFm3o20Jcil-5" value="" style="endArrow=classic;html=1;rounded=0;" parent="1" edge="1">
          <mxGeometry width="50" height="50" relative="1" as="geometry">
            <mxPoint x="24" y="310" as="sourcePoint" />
            <mxPoint x="729" y="310" as="targetPoint" />
          </mxGeometry>
        </mxCell>
        <mxCell id="5lqwtr8k2KFm3o20Jcil-6" value="t" style="edgeLabel;html=1;align=center;verticalAlign=middle;resizable=0;points=[];" parent="5lqwtr8k2KFm3o20Jcil-5" vertex="1" connectable="0">
          <mxGeometry x="0.9802" y="-2" relative="1" as="geometry">
            <mxPoint x="8" y="4" as="offset" />
          </mxGeometry>
        </mxCell>
        <mxCell id="5lqwtr8k2KFm3o20Jcil-7" value="" style="endArrow=classic;html=1;rounded=0;" parent="1" edge="1">
          <mxGeometry width="50" height="50" relative="1" as="geometry">
            <mxPoint x="24" y="431" as="sourcePoint" />
            <mxPoint x="734" y="431" as="targetPoint" />
          </mxGeometry>
        </mxCell>
        <mxCell id="5lqwtr8k2KFm3o20Jcil-8" value="t" style="edgeLabel;html=1;align=center;verticalAlign=middle;resizable=0;points=[];" parent="5lqwtr8k2KFm3o20Jcil-7" vertex="1" connectable="0">
          <mxGeometry x="0.9802" y="-2" relative="1" as="geometry">
            <mxPoint x="8" y="4" as="offset" />
          </mxGeometry>
        </mxCell>
        <mxCell id="5lqwtr8k2KFm3o20Jcil-9" value="" style="endArrow=classic;html=1;rounded=0;" parent="1" edge="1">
          <mxGeometry width="50" height="50" relative="1" as="geometry">
            <mxPoint x="23" y="552" as="sourcePoint" />
            <mxPoint x="734" y="552" as="targetPoint" />
          </mxGeometry>
        </mxCell>
        <mxCell id="5lqwtr8k2KFm3o20Jcil-10" value="t" style="edgeLabel;html=1;align=center;verticalAlign=middle;resizable=0;points=[];" parent="5lqwtr8k2KFm3o20Jcil-9" vertex="1" connectable="0">
          <mxGeometry x="0.9802" y="-2" relative="1" as="geometry">
            <mxPoint x="8" y="4" as="offset" />
          </mxGeometry>
        </mxCell>
        <mxCell id="5lqwtr8k2KFm3o20Jcil-11" value="" style="rounded=0;whiteSpace=wrap;html=1;fillColor=#B3B3B3;strokeColor=#000000;" parent="1" vertex="1">
          <mxGeometry x="79" y="129" width="120" height="61" as="geometry" />
        </mxCell>
        <mxCell id="5lqwtr8k2KFm3o20Jcil-12" value="" style="rounded=0;whiteSpace=wrap;html=1;fillColor=#B3B3B3;strokeColor=#000000;" parent="1" vertex="1">
          <mxGeometry x="285" y="370" width="120" height="61" as="geometry" />
        </mxCell>
        <mxCell id="5lqwtr8k2KFm3o20Jcil-13" value="" style="rounded=0;whiteSpace=wrap;html=1;fillColor=#B3B3B3;strokeColor=#000000;" parent="1" vertex="1">
          <mxGeometry x="110" y="249" width="120" height="61" as="geometry" />
        </mxCell>
        <mxCell id="5lqwtr8k2KFm3o20Jcil-18" value="" style="rounded=0;whiteSpace=wrap;html=1;fillColor=#B3B3B3;strokeColor=#000000;" parent="1" vertex="1">
          <mxGeometry x="318.5" y="491" width="120" height="61" as="geometry" />
        </mxCell>
        <mxCell id="5lqwtr8k2KFm3o20Jcil-20" value="Кл. &quot;-&amp;gt;&quot;" style="rounded=0;whiteSpace=wrap;html=1;" parent="1" vertex="1">
          <mxGeometry x="98.5" y="149.5" width="81" height="20" as="geometry" />
        </mxCell>
        <mxCell id="5lqwtr8k2KFm3o20Jcil-21" value="Кл. &quot;-&amp;gt;&quot;" style="rounded=0;whiteSpace=wrap;html=1;" parent="1" vertex="1">
          <mxGeometry x="129.5" y="269.5" width="81" height="20" as="geometry" />
        </mxCell>
        <mxCell id="5lqwtr8k2KFm3o20Jcil-22" value="Кл. &quot;&amp;lt;-&quot;" style="rounded=0;whiteSpace=wrap;html=1;" parent="1" vertex="1">
          <mxGeometry x="304.5" y="390.5" width="81" height="20" as="geometry" />
        </mxCell>
        <mxCell id="5lqwtr8k2KFm3o20Jcil-23" value="Кл. &quot;-&amp;gt;&quot;" style="rounded=0;whiteSpace=wrap;html=1;" parent="1" vertex="1">
          <mxGeometry x="338" y="511.5" width="81" height="20" as="geometry" />
        </mxCell>
        <mxCell id="5lqwtr8k2KFm3o20Jcil-31" value="1658" style="text;html=1;align=center;verticalAlign=middle;whiteSpace=wrap;rounded=0;fillColor=#ffe6cc;strokeColor=#d79b00;" parent="1" vertex="1">
          <mxGeometry x="184" y="193" width="32" height="15" as="geometry" />
        </mxCell>
        <mxCell id="5lqwtr8k2KFm3o20Jcil-33" value="657" style="text;html=1;align=center;verticalAlign=middle;whiteSpace=wrap;rounded=0;fillColor=#ffe6cc;strokeColor=#d79b00;" parent="1" vertex="1">
          <mxGeometry x="62" y="193" width="32" height="15" as="geometry" />
        </mxCell>
        <mxCell id="5lqwtr8k2KFm3o20Jcil-38" value="1287" style="text;html=1;align=center;verticalAlign=middle;whiteSpace=wrap;rounded=0;fillColor=#ffe6cc;strokeColor=#d79b00;" parent="1" vertex="1">
          <mxGeometry x="94" y="313" width="32" height="15" as="geometry" />
        </mxCell>
        <mxCell id="5lqwtr8k2KFm3o20Jcil-39" value="2287" style="text;html=1;align=center;verticalAlign=middle;whiteSpace=wrap;rounded=0;fillColor=#ffe6cc;strokeColor=#d79b00;" parent="1" vertex="1">
          <mxGeometry x="214" y="313" width="32" height="15" as="geometry" />
        </mxCell>
        <mxCell id="5lqwtr8k2KFm3o20Jcil-42" value="3125" style="text;html=1;align=center;verticalAlign=middle;whiteSpace=wrap;rounded=0;fillColor=#ffe6cc;strokeColor=#d79b00;" parent="1" vertex="1">
          <mxGeometry x="269" y="435" width="32" height="15" as="geometry" />
        </mxCell>
        <mxCell id="5lqwtr8k2KFm3o20Jcil-43" value="4125" style="text;html=1;align=center;verticalAlign=middle;whiteSpace=wrap;rounded=0;fillColor=#ffe6cc;strokeColor=#d79b00;" parent="1" vertex="1">
          <mxGeometry x="389" y="435" width="32" height="15" as="geometry" />
        </mxCell>
        <mxCell id="5lqwtr8k2KFm3o20Jcil-44" value="4730" style="text;html=1;align=center;verticalAlign=middle;whiteSpace=wrap;rounded=0;fillColor=#ffe6cc;strokeColor=#d79b00;" parent="1" vertex="1">
          <mxGeometry x="421.5" y="557" width="32" height="15" as="geometry" />
        </mxCell>
        <mxCell id="5lqwtr8k2KFm3o20Jcil-45" value="3730" style="text;html=1;align=center;verticalAlign=middle;whiteSpace=wrap;rounded=0;fillColor=#ffe6cc;strokeColor=#d79b00;" parent="1" vertex="1">
          <mxGeometry x="303.5" y="557" width="32" height="15" as="geometry" />
        </mxCell>
        <mxCell id="5lqwtr8k2KFm3o20Jcil-46" value="R=&quot;ABCDE&quot;" style="text;html=1;align=center;verticalAlign=middle;whiteSpace=wrap;rounded=0;" parent="1" vertex="1">
          <mxGeometry x="13" y="74" width="77" height="15" as="geometry" />
        </mxCell>
        <mxCell id="5lqwtr8k2KFm3o20Jcil-67" style="edgeStyle=orthogonalEdgeStyle;rounded=0;orthogonalLoop=1;jettySize=auto;html=1;entryX=0.5;entryY=0;entryDx=0;entryDy=0;" parent="1" source="5lqwtr8k2KFm3o20Jcil-56" target="5lqwtr8k2KFm3o20Jcil-59" edge="1">
          <mxGeometry relative="1" as="geometry" />
        </mxCell>
        <mxCell id="5lqwtr8k2KFm3o20Jcil-56" value="key" style="rounded=0;whiteSpace=wrap;html=1;" parent="1" vertex="1">
          <mxGeometry x="970.5" y="100" width="120" height="35" as="geometry" />
        </mxCell>
        <mxCell id="5lqwtr8k2KFm3o20Jcil-65" style="edgeStyle=orthogonalEdgeStyle;rounded=0;orthogonalLoop=1;jettySize=auto;html=1;" parent="1" source="5lqwtr8k2KFm3o20Jcil-59" edge="1">
          <mxGeometry relative="1" as="geometry">
            <mxPoint x="887.7142857142858" y="236.28571428571433" as="targetPoint" />
          </mxGeometry>
        </mxCell>
        <mxCell id="HgiKQU-IZWxFRXdvWFaB-1" value="+" style="edgeLabel;html=1;align=center;verticalAlign=middle;resizable=0;points=[];" vertex="1" connectable="0" parent="5lqwtr8k2KFm3o20Jcil-65">
          <mxGeometry x="-0.453" y="1" relative="1" as="geometry">
            <mxPoint x="-5" y="-9" as="offset" />
          </mxGeometry>
        </mxCell>
        <mxCell id="5lqwtr8k2KFm3o20Jcil-66" style="edgeStyle=orthogonalEdgeStyle;rounded=0;orthogonalLoop=1;jettySize=auto;html=1;" parent="1" source="5lqwtr8k2KFm3o20Jcil-59" edge="1">
          <mxGeometry relative="1" as="geometry">
            <mxPoint x="1178.7254901960787" y="237.52941176470597" as="targetPoint" />
          </mxGeometry>
        </mxCell>
        <mxCell id="5lqwtr8k2KFm3o20Jcil-59" value="key == VK_LEFT" style="rhombus;whiteSpace=wrap;html=1;" parent="1" vertex="1">
          <mxGeometry x="924" y="162" width="213" height="59" as="geometry" />
        </mxCell>
        <mxCell id="5lqwtr8k2KFm3o20Jcil-72" style="edgeStyle=orthogonalEdgeStyle;rounded=0;orthogonalLoop=1;jettySize=auto;html=1;entryX=0.5;entryY=0;entryDx=0;entryDy=0;" parent="1" source="5lqwtr8k2KFm3o20Jcil-62" target="5lqwtr8k2KFm3o20Jcil-68" edge="1">
          <mxGeometry relative="1" as="geometry" />
        </mxCell>
        <mxCell id="5lqwtr8k2KFm3o20Jcil-62" value="Операция 1:&lt;div&gt;Rc = shiftString(Rbuf, isLeft)&lt;br&gt;&lt;/div&gt;" style="rounded=0;whiteSpace=wrap;html=1;" parent="1" vertex="1">
          <mxGeometry x="876" y="239" width="153" height="60" as="geometry" />
        </mxCell>
        <mxCell id="5lqwtr8k2KFm3o20Jcil-71" style="edgeStyle=orthogonalEdgeStyle;rounded=0;orthogonalLoop=1;jettySize=auto;html=1;endArrow=none;endFill=0;" parent="1" source="5lqwtr8k2KFm3o20Jcil-64" edge="1">
          <mxGeometry relative="1" as="geometry">
            <mxPoint x="1030" y="332" as="targetPoint" />
            <Array as="points">
              <mxPoint x="1116" y="319" />
              <mxPoint x="1031" y="319" />
              <mxPoint x="1031" y="332" />
            </Array>
          </mxGeometry>
        </mxCell>
        <mxCell id="5lqwtr8k2KFm3o20Jcil-64" value="Операция 2:&lt;div&gt;Rc = shiftString(Rbuf, isLeft)&lt;br&gt;&lt;/div&gt;" style="rounded=0;whiteSpace=wrap;html=1;" parent="1" vertex="1">
          <mxGeometry x="1036" y="239" width="153" height="60" as="geometry" />
        </mxCell>
        <mxCell id="5lqwtr8k2KFm3o20Jcil-68" value="Создание и запуск дочернего потока&amp;nbsp;" style="rounded=0;whiteSpace=wrap;html=1;" parent="1" vertex="1">
          <mxGeometry x="954" y="334" width="153" height="39" as="geometry" />
        </mxCell>
        <mxCell id="5lqwtr8k2KFm3o20Jcil-73" style="edgeStyle=orthogonalEdgeStyle;rounded=0;orthogonalLoop=1;jettySize=auto;html=1;entryX=0.5;entryY=0;entryDx=0;entryDy=0;exitX=0.5;exitY=1;exitDx=0;exitDy=0;" parent="1" source="5lqwtr8k2KFm3o20Jcil-68" target="5lqwtr8k2KFm3o20Jcil-56" edge="1">
          <mxGeometry relative="1" as="geometry">
            <Array as="points">
              <mxPoint x="1031" y="381" />
              <mxPoint x="850" y="381" />
              <mxPoint x="850" y="80" />
              <mxPoint x="1031" y="80" />
            </Array>
            <mxPoint x="1112.5238095238096" y="360" as="sourcePoint" />
          </mxGeometry>
        </mxCell>
        <mxCell id="HgiKQU-IZWxFRXdvWFaB-7" value="" style="edgeStyle=orthogonalEdgeStyle;rounded=0;orthogonalLoop=1;jettySize=auto;html=1;entryX=0.5;entryY=0;entryDx=0;entryDy=0;" edge="1" parent="1" source="5lqwtr8k2KFm3o20Jcil-78" target="5lqwtr8k2KFm3o20Jcil-79">
          <mxGeometry relative="1" as="geometry" />
        </mxCell>
        <mxCell id="5lqwtr8k2KFm3o20Jcil-78" value="Rbuf=R" style="rounded=0;whiteSpace=wrap;html=1;" parent="1" vertex="1">
          <mxGeometry x="1371" y="89" width="153" height="39" as="geometry" />
        </mxCell>
        <mxCell id="5lqwtr8k2KFm3o20Jcil-79" value="Задержка" style="rounded=0;whiteSpace=wrap;html=1;" parent="1" vertex="1">
          <mxGeometry x="1371" y="149" width="153" height="39" as="geometry" />
        </mxCell>
        <mxCell id="5lqwtr8k2KFm3o20Jcil-80" value="R=Rbuf" style="rounded=0;whiteSpace=wrap;html=1;" parent="1" vertex="1">
          <mxGeometry x="1375" y="391" width="153" height="39" as="geometry" />
        </mxCell>
        <mxCell id="5lqwtr8k2KFm3o20Jcil-85" value="Главный поток" style="text;html=1;align=center;verticalAlign=middle;whiteSpace=wrap;rounded=0;fontStyle=0;fontSize=14;" parent="1" vertex="1">
          <mxGeometry x="944.5" y="37" width="172" height="30" as="geometry" />
        </mxCell>
        <mxCell id="5lqwtr8k2KFm3o20Jcil-86" value="Функция дочернего потока&amp;nbsp;" style="text;html=1;align=center;verticalAlign=middle;whiteSpace=wrap;rounded=0;fontStyle=0;fontSize=14;" parent="1" vertex="1">
          <mxGeometry x="1348" y="37" width="187.5" height="30" as="geometry" />
        </mxCell>
        <mxCell id="HgiKQU-IZWxFRXdvWFaB-2" value="-" style="edgeLabel;html=1;align=center;verticalAlign=middle;resizable=0;points=[];" vertex="1" connectable="0" parent="1">
          <mxGeometry x="906.7658595641647" y="193.48571428571427" as="geometry">
            <mxPoint x="266" y="-11" as="offset" />
          </mxGeometry>
        </mxCell>
        <mxCell id="HgiKQU-IZWxFRXdvWFaB-9" style="edgeStyle=orthogonalEdgeStyle;rounded=0;orthogonalLoop=1;jettySize=auto;html=1;" edge="1" parent="1" source="HgiKQU-IZWxFRXdvWFaB-3">
          <mxGeometry relative="1" as="geometry">
            <mxPoint x="1576.2857142857142" y="276.66666666666663" as="targetPoint" />
          </mxGeometry>
        </mxCell>
        <mxCell id="HgiKQU-IZWxFRXdvWFaB-3" value="key == VK_LEFT" style="rhombus;whiteSpace=wrap;html=1;" vertex="1" parent="1">
          <mxGeometry x="1341" y="215" width="213" height="59" as="geometry" />
        </mxCell>
        <mxCell id="HgiKQU-IZWxFRXdvWFaB-11" style="edgeStyle=orthogonalEdgeStyle;rounded=0;orthogonalLoop=1;jettySize=auto;html=1;" edge="1" parent="1" source="HgiKQU-IZWxFRXdvWFaB-5" target="5lqwtr8k2KFm3o20Jcil-80">
          <mxGeometry relative="1" as="geometry">
            <Array as="points">
              <mxPoint x="1338" y="365" />
              <mxPoint x="1452" y="365" />
            </Array>
          </mxGeometry>
        </mxCell>
        <mxCell id="HgiKQU-IZWxFRXdvWFaB-5" value="Операция 1:&lt;div&gt;Rc = shiftString(Rbuf, isLeft)&lt;/div&gt;" style="rounded=0;whiteSpace=wrap;html=1;" vertex="1" parent="1">
          <mxGeometry x="1262" y="280" width="153" height="60" as="geometry" />
        </mxCell>
        <mxCell id="HgiKQU-IZWxFRXdvWFaB-12" style="edgeStyle=orthogonalEdgeStyle;rounded=0;orthogonalLoop=1;jettySize=auto;html=1;entryX=0.5;entryY=0;entryDx=0;entryDy=0;" edge="1" parent="1" source="HgiKQU-IZWxFRXdvWFaB-6" target="5lqwtr8k2KFm3o20Jcil-80">
          <mxGeometry relative="1" as="geometry">
            <mxPoint x="1501.379310344828" y="368.7241379310344" as="targetPoint" />
            <Array as="points">
              <mxPoint x="1561" y="365" />
              <mxPoint x="1452" y="365" />
            </Array>
          </mxGeometry>
        </mxCell>
        <mxCell id="HgiKQU-IZWxFRXdvWFaB-6" value="Операция 2:&lt;div&gt;Rc = shiftString(Rbuf, isLeft)&lt;/div&gt;" style="rounded=0;whiteSpace=wrap;html=1;" vertex="1" parent="1">
          <mxGeometry x="1484" y="276" width="153" height="60" as="geometry" />
        </mxCell>
        <mxCell id="HgiKQU-IZWxFRXdvWFaB-8" style="edgeStyle=orthogonalEdgeStyle;rounded=0;orthogonalLoop=1;jettySize=auto;html=1;entryX=0.5;entryY=0.035;entryDx=0;entryDy=0;entryPerimeter=0;" edge="1" parent="1" source="5lqwtr8k2KFm3o20Jcil-79" target="HgiKQU-IZWxFRXdvWFaB-3">
          <mxGeometry relative="1" as="geometry" />
        </mxCell>
        <mxCell id="HgiKQU-IZWxFRXdvWFaB-10" style="edgeStyle=orthogonalEdgeStyle;rounded=0;orthogonalLoop=1;jettySize=auto;html=1;entryX=0.427;entryY=0.013;entryDx=0;entryDy=0;entryPerimeter=0;" edge="1" parent="1" source="HgiKQU-IZWxFRXdvWFaB-3" target="HgiKQU-IZWxFRXdvWFaB-5">
          <mxGeometry relative="1" as="geometry">
            <Array as="points">
              <mxPoint x="1327" y="244" />
              <mxPoint x="1327" y="267" />
              <mxPoint x="1327" y="267" />
            </Array>
          </mxGeometry>
        </mxCell>
        <mxCell id="HgiKQU-IZWxFRXdvWFaB-13" value="R=&quot;ABCDE&quot;" style="text;html=1;align=center;verticalAlign=middle;whiteSpace=wrap;rounded=0;" vertex="1" parent="1">
          <mxGeometry x="57" y="110" width="77" height="15" as="geometry" />
        </mxCell>
        <mxCell id="HgiKQU-IZWxFRXdvWFaB-14" value="R=&quot;EABCD&quot;" style="text;html=1;align=center;verticalAlign=middle;whiteSpace=wrap;rounded=0;" vertex="1" parent="1">
          <mxGeometry x="150" y="110" width="77" height="15" as="geometry" />
        </mxCell>
        <mxCell id="HgiKQU-IZWxFRXdvWFaB-15" value="R=&quot;ABCDE&quot;" style="text;html=1;align=center;verticalAlign=middle;whiteSpace=wrap;rounded=0;" vertex="1" parent="1">
          <mxGeometry x="90" y="234" width="77" height="15" as="geometry" />
        </mxCell>
        <mxCell id="HgiKQU-IZWxFRXdvWFaB-16" value="R=&quot;EABCD&quot;" style="text;html=1;align=center;verticalAlign=middle;whiteSpace=wrap;rounded=0;" vertex="1" parent="1">
          <mxGeometry x="173.5" y="234" width="77" height="15" as="geometry" />
        </mxCell>
        <mxCell id="HgiKQU-IZWxFRXdvWFaB-21" value="R=&quot;DEABC&quot;" style="text;html=1;align=center;verticalAlign=middle;whiteSpace=wrap;rounded=0;" vertex="1" parent="1">
          <mxGeometry x="382.5" y="476" width="77" height="15" as="geometry" />
        </mxCell>
        <mxCell id="HgiKQU-IZWxFRXdvWFaB-22" value="R=&quot;EABCD&quot;" style="text;html=1;align=center;verticalAlign=middle;whiteSpace=wrap;rounded=0;" vertex="1" parent="1">
          <mxGeometry x="260" y="355" width="77" height="15" as="geometry" />
        </mxCell>
        <mxCell id="HgiKQU-IZWxFRXdvWFaB-23" value="R=&quot;ABCDE&quot;" style="text;html=1;align=center;verticalAlign=middle;whiteSpace=wrap;rounded=0;" vertex="1" parent="1">
          <mxGeometry x="350" y="355" width="77" height="15" as="geometry" />
        </mxCell>
        <mxCell id="HgiKQU-IZWxFRXdvWFaB-25" value="R=&quot;EABCD&quot;" style="text;html=1;align=center;verticalAlign=middle;whiteSpace=wrap;rounded=0;" vertex="1" parent="1">
          <mxGeometry x="297" y="476" width="77" height="15" as="geometry" />
        </mxCell>
        <mxCell id="HgiKQU-IZWxFRXdvWFaB-27" value="" style="endArrow=classic;html=1;rounded=0;exitX=0.378;exitY=1;exitDx=0;exitDy=0;exitPerimeter=0;entryX=0.274;entryY=0.076;entryDx=0;entryDy=0;entryPerimeter=0;edgeStyle=orthogonalEdgeStyle;curved=1;strokeColor=#CCCCCC;" edge="1" parent="1" source="5lqwtr8k2KFm3o20Jcil-46" target="HgiKQU-IZWxFRXdvWFaB-13">
          <mxGeometry width="50" height="50" relative="1" as="geometry">
            <mxPoint x="124" y="95" as="sourcePoint" />
            <mxPoint x="174" y="45" as="targetPoint" />
          </mxGeometry>
        </mxCell>
        <mxCell id="HgiKQU-IZWxFRXdvWFaB-29" value="" style="endArrow=classic;html=1;rounded=0;exitX=1;exitY=0.5;exitDx=0;exitDy=0;entryX=0.25;entryY=0;entryDx=0;entryDy=0;edgeStyle=orthogonalEdgeStyle;curved=1;strokeColor=#CCCCCC;" edge="1" parent="1" source="HgiKQU-IZWxFRXdvWFaB-16" target="HgiKQU-IZWxFRXdvWFaB-22">
          <mxGeometry width="50" height="50" relative="1" as="geometry">
            <mxPoint x="361.25" y="201" as="sourcePoint" />
            <mxPoint x="448.25" y="346" as="targetPoint" />
          </mxGeometry>
        </mxCell>
      </root>
    </mxGraphModel>
  </diagram>
</mxfile>
